REM DIRINDEX 1\5,1\2\6,1\2\7,1\3\8,1\3\9,1\4\10,1\4\11,1\4\12
REM DIRNAME folder01,folder02,folder03,folder04,folder05,folder06,folder07,folder08,folder09,folder10,folder11,folder12
TITLE ""
FILE "EJE_DB3000_5th_6C_38.mp3" MP3
  TRACK 01 AUDIO
    TITLE "0:"
    INDEX 01 00:00:00
  TRACK 02 AUDIO
    TITLE "10:cjc026_11619"
    INDEX 01 00:00:05
  TRACK 03 AUDIO
    TITLE "0:"
    INDEX 01 00:01:07
  TRACK 04 AUDIO
    TITLE "11:cjc026_11620"
    INDEX 01 00:01:34
  TRACK 05 AUDIO
    TITLE "0:"
    INDEX 01 00:02:16
  TRACK 06 AUDIO
    TITLE "12:cjc026_11621"
    INDEX 01 00:02:42
  TRACK 07 AUDIO
    TITLE "0:"
    INDEX 01 00:03:43
  TRACK 08 AUDIO
    TITLE "10:cjc026_11622"
    INDEX 01 00:03:68
  TRACK 09 AUDIO
    TITLE "0:"
    INDEX 01 00:04:66
  TRACK 10 AUDIO
    TITLE "11:cjc026_11623"
    INDEX 01 00:05:16
  TRACK 11 AUDIO
    TITLE "0:"
    INDEX 01 00:06:22
  TRACK 12 AUDIO
    TITLE "12:cjc026_11624"
    INDEX 01 00:06:47
  TRACK 13 AUDIO
    TITLE "0:"
    INDEX 01 00:07:43
  TRACK 14 AUDIO
    TITLE "10:cjc026_11625"
    INDEX 01 00:07:70
  TRACK 15 AUDIO
    TITLE "0:"
    INDEX 01 00:08:66
  TRACK 16 AUDIO
    TITLE "11:cjc026_11626"
    INDEX 01 00:09:16
  TRACK 17 AUDIO
    TITLE "0:"
    INDEX 01 00:10:21
  TRACK 18 AUDIO
    TITLE "12:cjc026_11627"
    INDEX 01 00:10:47
  TRACK 19 AUDIO
    TITLE "0:"
    INDEX 01 00:11:42
  TRACK 20 AUDIO
    TITLE "10:cjc026_11628"
    INDEX 01 00:11:68
  TRACK 21 AUDIO
    TITLE "0:"
    INDEX 01 00:13:02
  TRACK 22 AUDIO
    TITLE "11:cjc026_11629"
    INDEX 01 00:13:26
  TRACK 23 AUDIO
    TITLE "0:"
    INDEX 01 00:14:47
  TRACK 24 AUDIO
    TITLE "12:cjc026_11630"
    INDEX 01 00:14:70
  TRACK 25 AUDIO
    TITLE "0:"
    INDEX 01 00:16:02
  TRACK 26 AUDIO
    TITLE "10:cjc026_11631"
    INDEX 01 00:16:28
  TRACK 27 AUDIO
    TITLE "0:"
    INDEX 01 00:17:35
  TRACK 28 AUDIO
    TITLE "11:cjc026_11632"
    INDEX 01 00:17:61
  TRACK 29 AUDIO
    TITLE "0:"
    INDEX 01 00:18:60
  TRACK 30 AUDIO
    TITLE "12:cjc026_11633"
    INDEX 01 00:19:11
  TRACK 31 AUDIO
    TITLE "0:"
    INDEX 01 00:20:18
  TRACK 32 AUDIO
    TITLE "10:cjc026_11634"
    INDEX 01 00:20:43
  TRACK 33 AUDIO
    TITLE "0:"
    INDEX 01 00:21:37
  TRACK 34 AUDIO
    TITLE "11:cjc026_11635"
    INDEX 01 00:21:62
  TRACK 35 AUDIO
    TITLE "0:"
    INDEX 01 00:22:60
  TRACK 36 AUDIO
    TITLE "12:cjc026_11636"
    INDEX 01 00:23:08
  TRACK 37 AUDIO
    TITLE "0:"
    INDEX 01 00:24:02
  TRACK 38 AUDIO
    TITLE "10:cjc026_11637"
    INDEX 01 00:24:27
  TRACK 39 AUDIO
    TITLE "0:"
    INDEX 01 00:25:25
  TRACK 40 AUDIO
    TITLE "11:cjc026_11638"
    INDEX 01 00:25:50
  TRACK 41 AUDIO
    TITLE "0:"
    INDEX 01 00:26:38
  TRACK 42 AUDIO
    TITLE "12:cjc026_11639"
    INDEX 01 00:26:64
  TRACK 43 AUDIO
    TITLE "0:"
    INDEX 01 00:27:59
  TRACK 44 AUDIO
    TITLE "10:cjc026_11640"
    INDEX 01 00:28:10
  TRACK 45 AUDIO
    TITLE "0:"
    INDEX 01 00:29:03
  TRACK 46 AUDIO
    TITLE "11:cjc026_11641"
    INDEX 01 00:29:31
  TRACK 47 AUDIO
    TITLE "0:"
    INDEX 01 00:30:34
  TRACK 48 AUDIO
    TITLE "12:cjc026_11642"
    INDEX 01 00:30:59
  TRACK 49 AUDIO
    TITLE "0:"
    INDEX 01 00:31:51
  TRACK 50 AUDIO
    TITLE "10:cjc026_11643"
    INDEX 01 00:32:03
  TRACK 51 AUDIO
    TITLE "0:"
    INDEX 01 00:32:70
  TRACK 52 AUDIO
    TITLE "11:cjc026_11644"
    INDEX 01 00:33:21
  TRACK 53 AUDIO
    TITLE "0:"
    INDEX 01 00:34:04
  TRACK 54 AUDIO
    TITLE "12:cjc026_11645"
    INDEX 01 00:34:30
  TRACK 55 AUDIO
    TITLE "0:"
    INDEX 01 00:35:21
  TRACK 56 AUDIO
    TITLE "10:cjc026_11646"
    INDEX 01 00:35:47
  TRACK 57 AUDIO
    TITLE "0:"
    INDEX 01 00:36:50
  TRACK 58 AUDIO
    TITLE "11:cjc026_11647"
    INDEX 01 00:37:03
  TRACK 59 AUDIO
    TITLE "0:"
    INDEX 01 00:37:73
  TRACK 60 AUDIO
    TITLE "12:cjc026_11648"
    INDEX 01 00:38:24
  TRACK 61 AUDIO
    TITLE "0:"
    INDEX 01 00:39:27
  TRACK 62 AUDIO
    TITLE "10:cjc026_11649"
    INDEX 01 00:39:52
  TRACK 63 AUDIO
    TITLE "0:"
    INDEX 01 00:40:48
  TRACK 64 AUDIO
    TITLE "11:cjc026_11650"
    INDEX 01 00:40:73
  TRACK 65 AUDIO
    TITLE "0:"
    INDEX 01 00:42:00
  TRACK 66 AUDIO
    TITLE "12:cjc026_11651"
    INDEX 01 00:42:27
  TRACK 67 AUDIO
    TITLE "0:"
    INDEX 01 00:43:21
  TRACK 68 AUDIO
    TITLE "10:cjc026_11652"
    INDEX 01 00:43:48
  TRACK 69 AUDIO
    TITLE "0:"
    INDEX 01 00:44:54
  TRACK 70 AUDIO
    TITLE "11:cjc026_11653"
    INDEX 01 00:45:04
  TRACK 71 AUDIO
    TITLE "0:"
    INDEX 01 00:46:07
  TRACK 72 AUDIO
    TITLE "12:cjc026_11654"
    INDEX 01 00:46:33
  TRACK 73 AUDIO
    TITLE "0:"
    INDEX 01 00:47:38
  TRACK 74 AUDIO
    TITLE "10:cjc026_11655"
    INDEX 01 00:47:64
  TRACK 75 AUDIO
    TITLE "0:"
    INDEX 01 00:48:63
  TRACK 76 AUDIO
    TITLE "11:cjc026_11656"
    INDEX 01 00:49:16
  TRACK 77 AUDIO
    TITLE "0:"
    INDEX 01 00:50:13
  TRACK 78 AUDIO
    TITLE "12:cjc026_11657"
    INDEX 01 00:50:37
  TRACK 79 AUDIO
    TITLE "0:"
    INDEX 01 00:51:36
